<svg xmlns="http://www.w3.org/2000/svg" viewBox="0 0 24 24" fill="#FCA326" width="24px" height="24px">
  <path d="M12 0C5.373 0 0 5.373 0 12c0 5.303 3.438 9.8 8.207 11.37.6.113.793-.26.793-.578v-2.113C4.53 20.155 4 18.03 4 18.03c-.438-1.113-1.064-1.41-1.064-1.41-.876-.597.065-.586.065-.586 1.01.074 1.542 1.036 1.542 1.036.9 1.54 2.363 1.097 2.942.84.09-.656.35-1.097.635-1.35-2.22-.253-4.555-1.11-4.555-4.937 0-1.09.39-1.98 1.036-2.677-.104-.253-.448-1.27.098-2.647 0 0 .84-.269 2.75 1.025A9.58 9.58 0 0 1 12 5.76c.84 0 1.688.114 2.484.338 1.91-1.294 2.75-1.025 2.75-1.025.546 1.377.203 2.394.1 2.647.647.697 1.036 1.587 1.036 2.677 0 3.837-2.337 4.68-4.562 4.927.358.308.677.918.677 1.85v2.738c0 .318.192.694.8.577C20.564 21.795 24 17.298 24 12c0-6.627-5.373-12-12-12z"/>
</svg>