<svg width="24" height="24" viewBox="0 0 24 24">
  <path d="M12 0c-6.627 0-12 5.373-12 12s5.373 12 12 12 12-5.373 12-12-5.373-12-12-12zm0 13.5c-2.33 0-4.313-1.464-5.414-3.527l-1.379 1.379c-.391.391-.391 1.023 0 1.414l1.379 1.379c.431.431 1.08.431 1.511 0l1.414-1.414c.391-.391.391-1.023 0-1.414l-1.414-1.414c-.431-.431-1.08-.431-1.511 0zm-7.414 4.073c-.827.827-.827 2.156 0 2.983l1.414 1.414c.827.827 2.156.827 2.983 0l1.414-1.414c.827-.827.827-2.156 0-2.983l-1.414-1.414zm10.828 0c-.827.827-.827 2.156 0 2.983l-1.414 1.414c-.827.827-2.156.827-2.983 0l-1.414-1.414c-.827-.827-.827-2.156 0-2.983l1.414-1.414c.827-.827 2.156-.827 2.983 0z"/>
</svg>